<?xml version="1.0" encoding="UTF-8"?>
<!-- Carib Yacht Sailing, znak podle původního loga v barvách nového webu -->
<svg xmlns="http://www.w3.org/2000/svg" viewBox="0 0 240 190"><style>@import url("https://fonts.googleapis.com/css2?family=DM+Serif+Display&amp;family=Jost:wght@500&amp;display=swap");</style><g transform="translate(60,0)"><path fill="#A98752" d="M86 20 C114 36 116 76 82 90 C102 74 104 44 86 20 Z"/>
<path fill="#A98752" d="M38 38 C20 52 20 76 40 86 C30 74 29 54 38 38 Z"/>
<path fill="#0B1621" d="M63 8 C94 24 99 64 65 84 C85 63 84 30 63 8 Z"/>
<path fill="#0B1621" opacity="0.5" d="M62 24 C78 36 80 60 64 76 C72 58 72 40 62 24 Z"/>
<path fill="#0B1621" d="M57 28 C38 43 36 66 55 80 C45 64 45 46 57 28 Z"/>
<rect fill="#0B1621" x="59" y="2" width="2.6" height="86" rx="1.3"/>
<path fill="#A98752" d="M26 92 C52 82 84 82 104 90 C82 87 54 89 26 96 Z"/>
</g>
<text x="120" y="146" text-anchor="middle" font-family="DM Serif Display, Georgia, serif" font-size="27" letter-spacing="2.7" fill="#121C25">CARIB YACHT</text>
<text x="120" y="172" text-anchor="middle" font-family="Jost, Arial, sans-serif" font-weight="500" font-size="10.5" letter-spacing="5.5" fill="#50585E">SAILING</text></svg>
