<svg xmlns="http://www.w3.org/2000/svg" viewBox="0 0 900 1016" preserveAspectRatio="xMidYMid slice"><style>.l{fill:#121C25;fill-opacity:.035}.c{fill:none;stroke:#121C25;stroke-opacity:.16;stroke-width:1.1;stroke-linejoin:round}.g{fill:none;stroke:#121C25;stroke-opacity:.06;stroke-width:1}</style><path class="g" d="M138 0 L138 1016 M485 0 L485 1016 M831 0 L831 1016 M0 704 L900 704 M0 355 L900 355 M0 0 L900 0 "/><path class="l" d="M908 -8 L908 372 L895 358 L887 354 L905 372 L908 379 L908 401 L868 416 L861 422 L860 424 L859 425 L859 426 L853 438 L849 442 L844 443 L838 450 L821 455 L814 454 L812 453 L811 452 L814 452 L819 449 L819 447 L818 447 L819 446 L825 447 L827 446 L828 445 L824 446 L822 446 L821 445 L821 444 L825 443 L826 443 L825 440 L825 438 L818 441 L816 440 L815 438 L818 429 L818 416 L819 386 L821 373 L823 365 L829 365 L830 363 L835 359 L836 359 L837 359 L839 365 L838 357 L834 351 L830 347 L824 348 L822 347 L817 340 L815 339 L811 339 L809 341 L807 345 L804 345 L802 336 L800 334 L799 335 L799 333 L796 329 L798 327 L798 325 L795 328 L793 328 L793 326 L791 323 L790 323 L787 320 L782 321 L781 317 L779 315 L777 315 L777 315 L776 316 L771 315 L768 316 L758 313 L756 312 L754 308 L753 308 L752 305 L752 312 L749 316 L745 317 L741 315 L744 318 L744 319 L738 320 L735 319 L734 316 L732 316 L730 313 L729 312 L727 312 L727 311 L732 304 L740 303 L739 301 L739 298 L742 295 L742 292 L738 282 L739 280 L737 278 L734 278 L733 275 L731 274 L727 273 L728 273 L727 274 L725 274 L725 275 L723 278 L725 277 L725 278 L722 284 L721 288 L721 291 L720 292 L718 292 L717 293 L716 292 L712 289 L707 292 L708 293 L705 294 L701 293 L702 291 L699 289 L700 286 L699 279 L700 276 L700 274 L698 269 L696 269 L698 267 L697 266 L698 265 L702 262 L703 263 L703 262 L702 259 L700 260 L699 259 L699 256 L697 253 L698 254 L699 252 L701 252 L704 254 L702 249 L702 248 L701 249 L701 251 L700 251 L697 249 L696 244 L696 244 L696 243 L695 242 L694 246 L692 246 L691 247 L689 245 L691 244 L693 245 L691 243 L691 240 L692 239 L695 240 L693 239 L693 238 L692 238 L692 237 L690 239 L691 235 L694 233 L697 234 L698 233 L696 234 L694 232 L691 234 L689 230 L688 229 L685 226 L686 228 L689 232 L690 234 L689 237 L690 241 L689 244 L688 241 L686 237 L686 232 L685 230 L680 224 L677 221 L676 213 L675 211 L667 203 L667 202 L668 202 L665 199 L665 198 L662 199 L662 201 L663 210 L661 210 L661 207 L660 206 L656 203 L647 200 L646 200 L646 201 L643 200 L643 198 L641 193 L643 194 L645 193 L647 191 L648 189 L646 187 L646 188 L647 189 L645 191 L643 191 L643 186 L644 183 L642 186 L642 182 L640 183 L638 182 L637 183 L638 184 L638 185 L639 184 L640 186 L640 187 L641 188 L642 191 L641 192 L639 191 L635 186 L632 185 L628 179 L628 178 L630 179 L629 178 L631 176 L630 177 L628 176 L630 175 L626 175 L626 175 L628 173 L624 174 L626 177 L628 177 L627 180 L624 176 L620 176 L620 171 L619 172 L619 176 L616 173 L616 172 L617 173 L617 172 L615 171 L611 166 L607 164 L601 164 L600 167 L598 167 L594 167 L593 169 L586 169 L585 169 L584 171 L583 171 L576 168 L560 165 L553 168 L552 168 L552 171 L549 170 L550 169 L548 167 L544 167 L545 166 L544 166 L544 164 L543 163 L545 159 L546 160 L548 156 L548 154 L544 148 L546 146 L547 144 L548 144 L549 143 L549 141 L547 137 L545 136 L550 128 L549 125 L548 122 L549 119 L553 117 L553 113 L552 112 L554 107 L551 109 L546 109 L532 106 L526 103 L526 99 L524 106 L514 108 L508 108 L504 106 L501 109 L488 113 L486 117 L485 116 L486 117 L485 119 L482 121 L482 124 L490 132 L492 139 L488 145 L486 154 L484 158 L482 166 L483 175 L483 181 L485 188 L483 194 L485 197 L486 200 L484 203 L483 205 L482 208 L475 216 L473 219 L472 222 L473 225 L471 226 L472 232 L469 232 L467 234 L460 247 L459 253 L455 261 L455 265 L456 271 L455 272 L454 270 L452 271 L450 275 L451 282 L450 287 L451 294 L450 293 L446 293 L446 298 L441 305 L441 307 L438 308 L436 310 L435 316 L432 317 L432 318 L434 319 L432 323 L435 326 L435 329 L432 331 L431 329 L429 328 L426 330 L427 334 L431 338 L433 338 L432 340 L429 340 L426 347 L426 349 L428 353 L426 355 L427 365 L426 367 L426 371 L427 378 L430 383 L431 387 L434 392 L438 397 L436 398 L435 398 L432 401 L432 405 L433 409 L440 410 L442 411 L448 411 L450 409 L452 405 L458 405 L463 403 L468 402 L469 403 L471 402 L474 404 L475 407 L476 409 L477 409 L477 414 L479 419 L479 422 L480 425 L479 426 L480 434 L480 437 L482 453 L484 454 L487 457 L491 465 L495 468 L498 467 L496 460 L494 459 L495 458 L497 460 L500 463 L503 473 L506 487 L515 531 L519 541 L524 550 L524 551 L523 551 L517 547 L514 546 L515 544 L514 539 L513 538 L513 528 L512 525 L509 524 L507 525 L505 529 L503 528 L504 524 L507 522 L507 519 L506 512 L505 510 L502 509 L499 510 L495 514 L495 522 L497 529 L500 531 L504 539 L506 541 L510 541 L511 546 L514 548 L512 549 L514 553 L519 555 L523 555 L525 552 L525 549 L538 566 L542 568 L543 567 L550 573 L554 575 L567 574 L570 573 L571 572 L576 573 L578 573 L577 570 L572 569 L574 568 L576 568 L581 571 L588 573 L592 576 L607 600 L610 602 L617 606 L624 614 L634 620 L636 620 L636 619 L635 619 L635 618 L637 618 L646 622 L649 625 L659 643 L666 649 L669 654 L684 664 L690 666 L694 670 L701 677 L708 689 L710 694 L723 717 L723 722 L725 735 L724 739 L727 752 L726 755 L723 758 L724 761 L720 765 L720 769 L723 775 L722 777 L721 776 L720 778 L719 787 L717 787 L716 790 L719 799 L724 806 L723 808 L726 807 L722 814 L722 817 L724 829 L722 845 L723 848 L725 853 L728 857 L737 865 L740 866 L742 868 L744 867 L745 867 L745 869 L749 872 L750 876 L750 879 L750 880 L755 886 L758 888 L758 891 L760 894 L759 897 L760 899 L763 903 L765 907 L769 914 L770 921 L772 923 L773 923 L775 926 L776 929 L777 932 L777 934 L779 937 L779 938 L782 950 L781 952 L781 956 L778 956 L777 957 L772 957 L769 956 L769 952 L766 950 L766 948 L770 945 L772 944 L769 944 L765 946 L762 940 L759 936 L759 939 L762 943 L762 950 L760 952 L756 951 L750 948 L744 950 L741 950 L734 957 L731 956 L730 955 L730 958 L728 963 L724 958 L721 949 L718 944 L715 942 L707 939 L695 932 L688 930 L685 925 L681 923 L679 922 L674 923 L671 922 L669 917 L662 912 L661 910 L662 909 L660 907 L634 896 L627 888 L623 887 L622 885 L618 883 L615 884 L614 885 L613 879 L609 876 L607 871 L603 871 L600 869 L591 866 L589 864 L584 857 L581 855 L575 854 L574 853 L575 850 L573 850 L573 849 L577 845 L580 843 L579 837 L576 834 L574 824 L570 819 L568 818 L561 810 L557 800 L549 795 L546 790 L541 788 L542 785 L543 784 L539 785 L535 783 L534 781 L533 779 L534 775 L540 774 L542 772 L545 772 L544 771 L540 772 L538 772 L538 767 L538 766 L532 762 L530 762 L528 763 L527 759 L527 756 L526 756 L526 753 L524 751 L525 745 L527 744 L529 735 L528 735 L526 734 L526 731 L527 729 L528 730 L531 727 L526 727 L526 722 L526 721 L528 721 L527 720 L527 718 L525 718 L524 716 L525 714 L523 714 L523 713 L519 713 L520 712 L520 710 L518 709 L516 710 L515 709 L510 698 L513 695 L514 691 L514 687 L515 684 L511 677 L511 669 L509 663 L508 657 L511 658 L511 657 L510 656 L511 648 L509 634 L502 619 L498 616 L495 611 L493 602 L491 601 L492 597 L490 597 L489 599 L485 595 L484 593 L482 593 L483 591 L482 588 L480 588 L480 586 L475 581 L474 580 L472 581 L471 577 L465 575 L463 573 L463 569 L465 569 L464 567 L463 567 L462 563 L467 556 L467 555 L463 557 L462 556 L462 553 L458 555 L458 554 L456 554 L454 551 L453 548 L453 546 L456 543 L457 538 L453 544 L452 543 L452 539 L451 538 L451 538 L449 540 L449 545 L448 545 L442 542 L439 538 L439 535 L438 530 L436 529 L437 528 L436 521 L434 522 L433 521 L434 520 L433 519 L426 514 L424 511 L423 515 L422 516 L419 516 L418 514 L417 510 L416 508 L420 505 L420 500 L419 501 L417 502 L415 499 L413 498 L413 494 L410 491 L408 492 L408 493 L405 495 L404 494 L402 491 L399 493 L398 490 L398 480 L396 477 L395 479 L395 474 L394 473 L389 475 L390 471 L392 468 L388 467 L388 469 L384 470 L383 471 L381 472 L380 471 L380 472 L378 471 L378 472 L376 473 L375 473 L378 474 L378 480 L376 484 L374 483 L373 485 L371 482 L366 479 L365 475 L360 456 L361 454 L361 456 L363 459 L364 457 L361 455 L363 449 L361 444 L364 442 L364 435 L366 430 L369 427 L371 427 L371 425 L373 422 L370 424 L369 423 L369 421 L373 420 L369 413 L368 410 L370 411 L372 409 L371 408 L371 407 L376 395 L378 386 L380 388 L383 385 L383 384 L380 384 L380 383 L378 382 L382 379 L380 377 L382 376 L380 375 L381 374 L384 375 L385 373 L382 372 L381 373 L381 371 L385 369 L387 366 L384 368 L382 366 L384 363 L385 364 L386 363 L386 363 L387 361 L386 361 L387 359 L390 358 L390 357 L388 357 L388 357 L388 355 L392 349 L396 340 L398 332 L398 330 L397 331 L394 339 L391 344 L387 352 L384 356 L383 355 L382 353 L382 344 L380 341 L382 336 L383 329 L380 323 L380 316 L378 310 L378 304 L378 303 L381 303 L383 306 L383 304 L382 303 L384 302 L385 303 L388 298 L387 296 L390 295 L387 294 L386 293 L389 292 L391 290 L393 291 L395 290 L395 290 L396 286 L394 284 L396 281 L395 277 L393 277 L392 275 L396 273 L399 265 L396 260 L396 257 L395 258 L394 257 L396 253 L400 252 L398 247 L397 248 L396 247 L397 243 L397 239 L398 236 L403 236 L403 234 L408 235 L407 233 L402 232 L400 231 L403 226 L402 224 L403 225 L399 230 L398 230 L395 232 L395 235 L393 236 L388 233 L388 230 L390 228 L390 228 L388 228 L389 226 L391 226 L393 222 L395 222 L394 221 L390 222 L384 222 L385 221 L386 220 L391 220 L393 218 L394 217 L396 216 L396 213 L395 210 L395 209 L392 209 L390 207 L391 206 L390 204 L390 203 L393 202 L392 202 L395 199 L395 197 L394 197 L392 197 L387 200 L385 199 L383 197 L384 195 L386 193 L393 191 L395 189 L395 188 L391 186 L388 183 L389 179 L395 178 L393 176 L390 176 L389 174 L391 170 L393 169 L392 166 L394 162 L391 162 L391 161 L393 160 L390 160 L389 159 L389 159 L391 158 L391 157 L390 151 L387 148 L389 146 L387 141 L386 138 L387 137 L386 129 L381 125 L380 122 L379 123 L378 117 L379 116 L379 113 L378 116 L377 113 L375 110 L376 109 L376 108 L373 104 L371 103 L371 101 L369 100 L369 99 L366 93 L367 94 L367 93 L363 92 L364 82 L362 77 L362 71 L359 67 L359 70 L360 72 L360 74 L359 77 L360 81 L359 91 L360 95 L358 101 L359 104 L358 104 L357 103 L356 105 L356 102 L355 101 L357 100 L356 98 L357 97 L357 95 L358 94 L356 93 L353 93 L354 91 L353 90 L352 88 L352 86 L354 86 L353 80 L354 78 L352 77 L350 71 L354 64 L353 60 L354 60 L353 58 L352 59 L349 54 L346 48 L345 43 L346 38 L345 40 L344 39 L340 30 L341 28 L338 25 L338 23 L340 21 L342 20 L346 24 L348 25 L345 20 L346 20 L344 18 L344 17 L343 14 L342 15 L342 17 L341 18 L340 17 L339 14 L339 19 L338 20 L335 19 L333 11 L332 9 L333 3 L333 1 L331 -1 L331 -2 L333 -2 L332 -4 L333 -8 L908 -8ZM550 924 L550 920 L549 917 L546 910 L542 904 L540 901 L540 898 L541 895 L543 893 L546 891 L557 892 L559 897 L566 902 L576 910 L576 918 L580 928 L583 932 L593 936 L603 935 L606 935 L625 951 L631 955 L633 957 L634 960 L633 964 L637 967 L637 977 L638 980 L653 995 L660 999 L664 1000 L669 999 L684 1000 L689 1004 L696 1012 L698 1015 L699 1018 L697 1020 L689 1024 L698 1024 L704 1022 L708 1017 L712 1016 L717 1013 L726 1017 L730 1020 L733 1024 L424 1024 L424 1017 L423 1014 L422 1015 L422 1009 L420 1007 L419 1008 L418 997 L414 993 L414 987 L410 973 L404 960 L405 957 L401 953 L399 947 L397 946 L395 942 L397 942 L398 944 L403 938 L403 934 L401 933 L400 929 L396 926 L395 927 L395 928 L396 929 L396 931 L395 931 L394 930 L392 928 L383 916 L377 913 L371 912 L370 910 L369 909 L365 909 L363 906 L357 901 L345 895 L343 893 L337 895 L334 894 L334 894 L332 893 L329 893 L328 893 L322 884 L323 876 L322 866 L319 852 L306 848 L305 847 L299 838 L296 828 L294 826 L289 825 L278 806 L272 801 L269 795 L260 791 L246 791 L241 789 L237 786 L221 765 L219 764 L216 764 L212 759 L208 758 L194 742 L191 740 L189 736 L184 733 L181 730 L178 729 L178 727 L175 725 L171 719 L168 716 L163 701 L159 696 L158 695 L159 693 L159 691 L156 688 L155 684 L152 684 L155 680 L156 675 L155 673 L155 672 L152 666 L153 664 L158 664 L162 661 L168 658 L174 662 L175 661 L181 660 L191 664 L197 667 L200 668 L201 673 L203 675 L214 683 L228 686 L233 688 L236 689 L240 688 L244 689 L253 689 L265 684 L270 686 L275 685 L282 687 L287 690 L289 693 L293 694 L311 686 L313 687 L323 699 L334 708 L340 712 L344 719 L344 724 L347 729 L346 735 L349 735 L349 736 L350 735 L352 736 L356 736 L359 740 L360 739 L365 744 L366 748 L365 759 L359 762 L359 766 L364 761 L367 768 L371 767 L374 768 L379 770 L381 773 L385 773 L385 776 L387 777 L393 779 L395 782 L395 787 L401 792 L408 795 L412 796 L428 805 L441 814 L445 816 L449 819 L450 822 L454 826 L467 830 L469 834 L474 839 L475 842 L477 841 L480 844 L483 846 L484 857 L481 864 L484 866 L484 867 L485 869 L485 870 L487 869 L485 865 L483 863 L486 861 L488 862 L490 864 L490 868 L491 873 L493 875 L494 875 L493 870 L493 866 L496 863 L499 863 L500 865 L502 866 L503 871 L506 873 L511 887 L515 893 L523 901 L527 903 L531 903 L541 909 L545 914 L547 922 L550 924ZM908 375 L906 372 L906 371 L908 373 L908 375ZM749 989 L752 990 L754 991 L758 996 L757 997 L755 996 L754 994 L751 993 L749 989ZM758 982 L759 983 L759 985 L756 986 L752 983 L750 981 L752 980 L753 981 L753 979 L754 980 L758 982ZM385 934 L387 936 L388 938 L386 938 L381 938 L376 935 L376 933 L378 932 L382 936 L385 934ZM287 908 L285 909 L286 911 L284 911 L282 906 L285 904 L287 906 L287 908ZM146 654 L148 656 L147 657 L145 656 L143 658 L143 656 L142 656 L142 655 L142 654 L143 653 L140 653 L139 652 L141 651 L142 651 L146 654ZM470 618 L471 615 L473 614 L472 618 L473 620 L472 622 L471 622 L469 620 L469 619 L470 618ZM424 519 L424 522 L423 523 L420 521 L418 518 L420 518 L424 519ZM781 1002 L780 1002 L776 1000 L775 998 L775 997 L780 995 L782 1002 L781 1002ZM366 425 L368 426 L367 428 L365 433 L364 433 L364 431 L364 425 L364 424 L366 425ZM713 1007 L713 1011 L713 1012 L712 1013 L704 1015 L702 1013 L702 1011 L703 1005 L705 1002 L707 1002 L709 1002 L713 1007ZM726 997 L728 999 L726 1003 L724 1005 L722 1006 L721 1005 L716 998 L716 995 L717 990 L719 989 L720 990 L722 993 L724 994 L726 997ZM723 980 L723 982 L722 982 L719 981 L717 981 L716 980 L714 977 L715 974 L718 972 L719 972 L720 977 L722 978 L723 980ZM772 970 L772 973 L771 978 L769 977 L769 979 L768 981 L768 982 L765 982 L761 981 L758 981 L755 976 L755 975 L756 974 L757 976 L759 975 L758 972 L759 971 L761 972 L764 968 L767 972 L768 970 L767 969 L768 968 L770 968 L772 970ZM300 902 L301 908 L299 910 L299 908 L298 908 L296 905 L291 900 L284 897 L289 896 L290 898 L291 898 L294 896 L296 896 L297 897 L296 898 L299 900 L300 902ZM777 858 L777 861 L776 862 L772 863 L771 860 L770 858 L773 855 L772 852 L773 850 L774 851 L777 858ZM886 843 L890 844 L889 845 L888 844 L887 849 L886 850 L885 849 L881 851 L884 852 L884 853 L880 854 L879 851 L881 844 L878 842 L879 840 L878 839 L879 838 L880 840 L882 841 L882 844 L885 844 L886 843ZM506 673 L508 675 L505 686 L497 685 L497 685 L498 683 L498 676 L497 672 L498 672 L499 673 L501 672 L504 671 L506 673ZM162 642 L165 645 L165 648 L163 646 L163 649 L162 650 L159 649 L157 648 L156 644 L154 643 L153 641 L153 641 L156 641 L158 644 L159 644 L161 641 L162 642ZM478 609 L479 611 L476 613 L475 614 L474 613 L474 612 L473 612 L469 615 L466 616 L465 613 L465 610 L461 609 L460 604 L462 605 L465 604 L469 605 L472 603 L473 603 L473 602 L474 602 L475 604 L479 607 L478 609ZM462 598 L461 600 L459 596 L457 594 L461 584 L462 588 L462 591 L464 596 L464 597 L462 598ZM51 539 L50 541 L45 547 L43 547 L43 545 L41 543 L42 542 L43 539 L46 538 L48 534 L48 537 L51 539ZM30 498 L32 501 L31 504 L29 502 L25 503 L24 502 L24 500 L22 500 L21 498 L22 495 L26 494 L27 494 L28 497 L30 498ZM375 502 L376 501 L377 503 L374 504 L374 508 L370 507 L369 511 L366 510 L365 503 L366 502 L366 501 L364 500 L365 498 L365 497 L366 495 L365 490 L366 486 L366 481 L369 483 L370 487 L371 487 L374 489 L375 488 L377 489 L375 493 L375 495 L374 497 L374 499 L375 502ZM37 492 L34 495 L33 492 L34 491 L36 490 L34 489 L34 490 L32 490 L31 484 L34 479 L35 479 L36 479 L37 480 L35 485 L37 491 L37 492ZM489 384 L491 386 L489 392 L487 393 L486 395 L481 396 L480 390 L481 389 L480 385 L482 384 L488 385 L489 385 L489 384ZM367 351 L365 351 L367 353 L366 354 L365 354 L363 357 L359 359 L358 362 L355 366 L354 363 L355 357 L362 351 L364 350 L367 351ZM767 329 L767 337 L764 348 L765 350 L765 351 L765 354 L762 353 L759 338 L757 336 L752 332 L751 329 L757 329 L759 326 L760 324 L762 323 L767 329ZM365 296 L365 299 L367 300 L366 301 L367 303 L365 306 L364 306 L362 305 L362 303 L363 303 L364 302 L362 301 L363 296 L361 295 L360 293 L359 291 L358 292 L358 290 L356 290 L353 293 L352 292 L355 288 L356 286 L358 286 L360 287 L362 293 L365 296ZM365 228 L366 228 L367 229 L369 233 L367 235 L366 248 L364 251 L362 249 L362 251 L360 251 L361 252 L358 253 L358 252 L358 251 L359 251 L360 250 L359 247 L361 245 L360 243 L363 240 L362 237 L365 232 L365 228ZM383 228 L384 228 L385 231 L384 240 L383 243 L383 247 L381 244 L378 243 L377 244 L376 244 L376 242 L375 242 L375 240 L372 235 L373 235 L374 234 L373 233 L372 231 L375 230 L373 229 L372 229 L376 229 L378 229 L377 228 L380 228 L383 228ZM388 216 L392 217 L392 218 L386 218 L382 221 L379 221 L378 218 L379 214 L377 213 L376 206 L377 206 L382 213 L384 214 L385 214 L388 216ZM651 211 L654 215 L654 216 L653 216 L649 213 L649 216 L645 215 L645 216 L643 215 L643 210 L641 204 L642 204 L640 203 L645 203 L647 205 L651 211ZM353 200 L355 200 L356 204 L354 202 L351 202 L349 198 L349 195 L351 193 L354 193 L355 195 L353 200ZM351 188 L349 190 L347 192 L346 195 L345 192 L342 192 L344 189 L344 188 L342 190 L342 188 L343 187 L347 185 L347 188 L349 188 L349 186 L351 185 L351 183 L352 184 L353 186 L352 188 L351 188ZM378 172 L379 177 L378 181 L373 188 L370 191 L367 190 L369 182 L368 179 L369 177 L367 171 L367 168 L368 165 L369 166 L373 167 L374 168 L374 172 L376 176 L376 172 L377 171 L378 172ZM367 137 L368 136 L369 137 L367 141 L368 148 L367 149 L363 131 L363 128 L363 127 L364 127 L367 137ZM777 990 L779 990 L780 991 L779 992 L774 995 L772 991 L768 990 L768 985 L770 985 L773 989 L777 990ZM698 1007 L698 1010 L697 1011 L695 1005 L696 1005 L698 1007ZM727 1002 L728 1003 L728 1004 L727 1007 L725 1007 L725 1005 L727 1002ZM700 996 L700 998 L699 1001 L698 998 L700 996ZM801 995 L805 996 L804 998 L800 997 L797 999 L798 996 L801 995ZM739 992 L742 995 L742 997 L741 998 L738 994 L739 992ZM724 987 L726 989 L725 990 L722 990 L720 987 L724 987ZM747 318 L748 321 L747 323 L745 323 L744 321 L745 320 L745 319 L747 318ZM337 398 L335 397 L335 395 L337 395 L337 398ZM464 387 L464 388 L462 388 L464 387ZM350 369 L347 369 L347 368 L347 367 L349 367 L350 369ZM362 318 L362 320 L359 321 L359 318 L361 317 L362 317 L362 318ZM376 286 L376 285 L377 284 L377 287 L376 286ZM309 229 L308 228 L310 229 L310 229 L309 229ZM60 195 L59 195 L59 194 L60 194 L60 195ZM335 159 L335 157 L336 156 L337 159 L337 159 L335 159ZM89 111 L89 113 L88 113 L87 112 L89 111ZM728 994 L729 997 L726 994 L722 991 L721 990 L726 992 L728 994ZM817 979 L820 980 L820 981 L821 983 L819 984 L819 982 L816 980 L817 979ZM252 903 L254 905 L254 906 L251 907 L250 906 L250 904 L252 903ZM151 660 L152 662 L149 663 L146 661 L146 661 L148 658 L151 660ZM433 594 L433 595 L430 597 L427 597 L426 596 L428 596 L430 594 L433 594ZM443 546 L447 548 L444 548 L442 551 L442 547 L442 545 L443 546ZM39 495 L40 500 L35 496 L35 495 L36 495 L37 495 L38 493 L39 495ZM390 483 L389 489 L386 487 L386 487 L387 486 L387 485 L389 481 L390 483ZM42 457 L43 461 L42 464 L42 459 L41 456 L42 455 L42 457ZM375 371 L375 373 L374 375 L373 374 L375 371ZM359 346 L358 344 L359 342 L359 341 L363 343 L362 344 L362 345 L360 346 L359 352 L359 346ZM340 320 L339 321 L341 321 L342 323 L340 324 L341 326 L340 326 L339 326 L338 325 L340 324 L339 320 L340 320ZM380 292 L384 294 L384 296 L384 299 L383 299 L381 299 L383 297 L382 296 L381 297 L380 292ZM339 292 L339 290 L340 290 L343 290 L340 294 L338 295 L339 294 L339 292ZM365 267 L367 267 L367 268 L363 269 L363 267 L361 265 L366 265 L365 267ZM694 249 L696 251 L694 254 L694 254 L694 252 L692 248 L693 247 L694 248 L694 249ZM323 220 L324 222 L323 223 L323 225 L322 225 L321 223 L323 220ZM364 224 L364 221 L365 220 L366 222 L365 224 L364 224ZM365 218 L363 219 L362 217 L362 216 L364 216 L365 218ZM7 200 L7 203 L7 206 L7 207 L4 205 L4 203 L5 199 L6 199 L7 200ZM382 179 L382 184 L380 185 L379 184 L380 179 L381 177 L382 179ZM364 173 L366 176 L366 178 L364 179 L362 177 L362 174 L364 173ZM334 172 L336 171 L337 174 L336 176 L335 174 L334 174 L335 173 L334 172ZM3 95 L4 97 L-1 95 L2 94 L3 95ZM341 82 L342 82 L340 87 L341 82 L341 82ZM27 61 L27 66 L26 67 L27 61 L27 61ZM47 10 L49 7 L50 6 L49 9 L47 10ZM776 1002 L780 1004 L781 1005 L781 1007 L776 1002ZM337 395 L336 394 L336 393 L337 392 L339 392 L339 394 L337 394 L337 395ZM812 999 L814 999 L813 1001 L811 999 L812 999ZM807 992 L807 994 L805 995 L806 992 L806 991 L807 992ZM573 840 L572 841 L571 841 L570 840 L572 839 L573 840ZM715 314 L715 316 L715 316 L714 316 L712 313 L712 312 L714 311 L714 314 L715 314 L715 314ZM713 303 L714 304 L714 305 L713 306 L712 307 L710 305 L707 303 L706 301 L708 300 L709 300 L713 303ZM748 991 L750 994 L750 996 L750 998 L745 995 L743 992 L743 990 L744 989 L746 990 L748 991ZM418 520 L421 522 L421 527 L424 531 L422 532 L419 530 L418 525 L417 520 L418 520ZM384 488 L388 490 L389 500 L388 502 L387 502 L386 499 L385 496 L386 495 L386 494 L386 493 L385 492 L383 490 L383 486 L384 488ZM9 478 L12 479 L12 481 L7 479 L5 476 L4 471 L6 470 L7 471 L7 476 L9 478ZM367 415 L368 417 L369 420 L367 421 L368 421 L364 422 L363 421 L363 414 L365 414 L367 415ZM487 369 L489 370 L491 378 L484 374 L484 373 L483 371 L484 369 L487 369ZM383 286 L382 287 L381 288 L380 287 L379 286 L380 284 L382 282 L382 278 L384 283 L384 288 L383 288 L383 286ZM695 259 L696 261 L695 265 L695 266 L693 266 L692 265 L691 256 L692 254 L692 255 L693 254 L694 255 L695 259ZM662 234 L664 234 L665 236 L665 238 L664 241 L665 241 L664 243 L664 244 L663 243 L660 242 L661 240 L660 236 L661 231 L662 231 L662 232 L662 234ZM350 235 L352 240 L347 235 L348 234 L348 231 L347 230 L346 225 L347 223 L347 227 L350 229 L350 233 L352 232 L351 234 L350 235ZM3 216 L5 221 L3 221 L2 218 L-4 214 L-1 211 L1 211 L2 211 L1 213 L3 216ZM577 839 L577 842 L572 845 L575 838 L576 838 L577 839ZM701 986 L704 989 L704 991 L701 993 L698 992 L689 987 L686 983 L680 982 L678 979 L672 979 L668 981 L666 981 L666 980 L671 975 L673 971 L675 970 L679 970 L684 972 L695 978 L701 986ZM807 975 L808 979 L806 982 L807 986 L804 988 L803 993 L801 993 L795 991 L795 989 L793 987 L795 987 L795 986 L791 984 L791 983 L794 982 L794 980 L795 979 L793 977 L792 977 L788 979 L785 980 L784 981 L780 981 L779 980 L778 975 L783 972 L785 969 L788 969 L789 967 L794 969 L797 969 L801 967 L801 966 L803 968 L802 971 L803 973 L807 975ZM656 965 L656 968 L654 976 L655 983 L651 986 L649 986 L642 979 L639 974 L640 967 L637 961 L638 958 L638 954 L639 953 L643 953 L656 965ZM759 954 L762 955 L760 958 L758 959 L754 960 L750 963 L747 963 L745 961 L738 960 L737 959 L740 953 L741 952 L750 950 L759 954ZM657 956 L658 962 L656 963 L653 961 L646 953 L643 951 L632 950 L630 948 L625 943 L623 941 L624 939 L628 938 L634 941 L646 943 L655 946 L657 947 L657 956ZM241 883 L241 887 L237 888 L233 887 L231 887 L229 886 L230 885 L229 884 L227 882 L224 881 L212 872 L205 869 L205 870 L203 871 L200 869 L198 867 L193 867 L193 864 L189 860 L190 858 L187 858 L187 854 L192 853 L192 851 L193 847 L195 848 L200 848 L202 849 L201 852 L200 850 L200 851 L200 853 L202 852 L203 854 L205 855 L206 857 L208 858 L214 860 L216 861 L217 862 L215 865 L215 867 L217 866 L219 867 L218 865 L219 865 L225 870 L230 873 L233 876 L234 879 L235 879 L235 876 L236 877 L237 877 L241 883ZM64 563 L64 568 L62 573 L62 576 L63 578 L59 578 L58 582 L56 582 L56 578 L54 576 L55 575 L54 574 L54 572 L53 572 L53 570 L52 570 L49 564 L46 563 L45 564 L45 556 L47 552 L50 552 L56 548 L60 551 L61 558 L64 563ZM4 123 L5 124 L4 127 L3 138 L1 140 L-1 140 L-2 141 L-2 137 L-3 137 L-3 138 L-4 138 L-5 139 L-3 145 L-4 146 L-5 144 L-7 144 L-8 147 L-8 150 L-7 150 L-6 148 L-2 152 L-2 157 L-3 158 L-1 162 L-2 169 L-1 173 L-1 177 L-3 180 L-2 180 L-4 183 L-4 184 L-7 181 L-7 183 L-8 183 L-8 187 L-6 190 L-8 191 L-7 195 L-8 196 L-7 199 L-8 199 L-8 115 L-7 110 L-4 106 L-3 104 L-1 103 L-0 104 L1 104 L1 102 L1 102 L3 102 L5 105 L4 109 L4 114 L6 113 L5 114 L4 115 L3 117 L0 119 L-0 117 L-2 118 L-1 120 L2 120 L4 123ZM341 982 L342 982 L342 984 L339 988 L340 994 L337 1007 L334 1012 L331 1010 L330 1011 L327 1010 L326 1011 L324 1009 L325 1007 L322 1004 L323 1001 L319 994 L317 991 L311 987 L311 986 L310 985 L304 985 L304 980 L303 977 L298 969 L295 965 L294 963 L290 961 L289 958 L286 955 L283 953 L282 954 L281 953 L284 951 L287 951 L288 953 L293 952 L299 948 L300 947 L300 944 L301 944 L304 946 L306 945 L307 948 L311 948 L314 954 L319 959 L320 962 L325 968 L332 971 L335 976 L339 977 L341 982ZM800 1021 L800 1022 L798 1022 L798 1024 L797 1021 L800 1021ZM732 1020 L733 1022 L731 1022 L730 1020 L732 1020ZM782 1017 L781 1014 L782 1017ZM734 1014 L735 1015 L734 1017 L732 1012 L732 1012 L734 1014ZM778 1013 L777 1013 L777 1012 L778 1013ZM775 1009 L775 1008 L777 1011 L776 1011 L775 1013 L774 1010 L775 1009ZM740 1007 L741 1007 L741 1009 L739 1008 L739 1006 L740 1007ZM768 1006 L769 1007 L768 1009 L767 1006 L768 1006ZM784 1005 L783 1004 L783 1003 L784 1005ZM782 1004 L781 1004 L781 1003 L782 1003 L782 1004ZM743 1000 L744 999 L743 1001 L743 1003 L742 1003 L740 1001 L740 1000 L743 1000ZM739 1001 L738 999 L740 1000 L739 1001ZM806 999 L807 998 L807 999 L804 1002 L803 1002 L804 999 L806 999ZM811 999 L810 999 L809 998 L810 998 L811 999ZM783 999 L783 998 L784 998 L786 999 L783 999ZM811 998 L809 997 L809 996 L813 996 L814 998 L811 998ZM730 997 L730 998 L729 997 L729 996 L730 996 L730 997ZM300 993 L300 995 L299 994 L299 993 L300 993ZM794 989 L795 990 L794 991 L791 990 L794 989ZM810 992 L808 992 L808 991 L808 990 L809 989 L810 989 L810 992ZM806 989 L807 989 L805 991 L805 989 L805 988 L806 989ZM765 987 L765 988 L764 989 L765 987ZM772 984 L772 983 L773 983 L773 984 L775 985 L772 986 L772 984ZM766 984 L767 985 L766 987 L765 986 L765 984 L765 983 L766 984ZM779 982 L780 982 L780 983 L778 983 L779 982ZM773 982 L772 982 L772 980 L774 979 L775 980 L773 982ZM748 983 L748 984 L746 983 L746 980 L745 980 L746 978 L747 978 L748 983ZM773 979 L773 977 L774 977 L775 978 L773 980 L773 979ZM748 974 L749 975 L747 975 L748 974 L748 974ZM713 971 L713 973 L713 973 L713 971ZM720 970 L721 972 L719 972 L718 970 L719 970 L720 970ZM721 958 L722 958 L723 959 L722 960 L721 958ZM252 899 L253 900 L252 901 L250 900 L250 899 L252 899ZM531 897 L532 900 L528 898 L528 896 L529 896 L531 897ZM557 890 L555 891 L552 891 L552 890 L557 890ZM770 890 L771 891 L771 892 L768 890 L768 890 L770 890ZM797 881 L797 879 L798 879 L799 880 L799 882 L798 882 L797 881ZM784 872 L783 870 L785 871 L786 872 L785 873 L784 872ZM756 863 L756 864 L755 865 L755 864 L755 863 L756 863ZM570 846 L572 845 L572 849 L571 849 L570 849 L570 846ZM899 839 L898 841 L898 840 L898 841 L898 837 L899 836 L899 839ZM876 834 L877 835 L876 836 L875 835 L875 834 L876 834ZM525 759 L525 760 L522 758 L522 755 L524 756 L525 759ZM695 649 L695 649 L695 651 L692 651 L692 647 L693 647 L695 649ZM677 641 L676 642 L675 641 L675 642 L675 640 L676 640 L677 641ZM437 595 L438 596 L438 598 L436 599 L434 595 L435 594 L437 595ZM475 583 L475 585 L474 585 L474 585 L475 583ZM457 557 L458 559 L455 558 L454 556 L457 557ZM372 522 L372 522 L371 524 L371 522 L372 522ZM415 506 L414 510 L411 506 L412 505 L415 506ZM17 477 L17 480 L15 478 L16 477 L17 477ZM820 465 L819 466 L819 465 L820 463 L820 465ZM4 464 L4 463 L5 463 L5 465 L4 464ZM322 449 L322 452 L320 449 L322 449ZM366 413 L365 413 L365 411 L368 407 L366 413ZM723 404 L727 404 L724 405 L723 404ZM344 380 L344 383 L343 381 L343 380 L344 380ZM787 378 L787 379 L786 378 L787 376 L787 378ZM805 369 L804 369 L806 367 L807 368 L807 369 L805 369ZM379 365 L379 367 L378 370 L376 369 L376 367 L377 364 L379 365ZM474 350 L473 351 L472 350 L473 346 L474 346 L475 348 L474 350ZM345 343 L345 344 L345 345 L344 345 L343 346 L343 344 L345 342 L345 343ZM348 315 L348 315 L346 316 L346 317 L342 315 L344 314 L346 315 L347 313 L348 313 L348 315ZM368 282 L369 283 L368 284 L367 283 L368 282 L368 282ZM384 264 L384 266 L383 261 L384 264ZM356 255 L356 258 L355 258 L355 256 L353 255 L354 255 L356 255 L356 254 L356 255ZM314 228 L313 229 L311 229 L310 227 L313 227 L314 228ZM657 226 L659 226 L658 227 L657 227 L657 229 L656 227 L654 227 L656 225 L657 226ZM328 204 L327 206 L326 204 L328 204ZM3 206 L4 208 L4 210 L1 208 L1 205 L2 203 L2 202 L2 204 L3 206ZM374 201 L374 202 L374 204 L373 204 L373 202 L374 201ZM378 186 L379 186 L380 187 L380 189 L378 190 L376 189 L378 186ZM540 163 L541 164 L539 166 L538 163 L540 163ZM371 161 L371 164 L370 162 L369 159 L371 161ZM1 143 L-1 148 L-1 147 L-2 147 L-1 146 L-3 144 L-2 144 L-1 145 L-0 143 L1 143ZM383 128 L382 130 L381 131 L380 127 L380 127 L382 126 L383 128ZM16 73 L16 71 L17 73 L16 74 L16 73ZM333 58 L334 58 L333 60 L332 62 L331 60 L332 59 L333 58ZM331 42 L331 44 L330 42 L331 42 L331 42ZM696 995 L696 997 L695 1001 L693 1002 L687 997 L685 996 L682 995 L676 996 L670 995 L662 997 L659 996 L651 990 L652 987 L658 985 L655 974 L657 972 L660 972 L662 973 L666 977 L665 981 L669 982 L673 980 L676 981 L686 986 L694 992 L696 995ZM604 908 L606 911 L608 916 L605 920 L604 926 L603 927 L599 931 L597 932 L594 932 L588 930 L586 928 L583 921 L581 918 L582 911 L583 909 L584 908 L587 907 L592 908 L596 904 L599 903 L601 904 L604 908Z"/><path class="c" d="M908 -8 L908 372 L895 358 L887 354 L905 372 L908 379 L908 401 L868 416 L861 422 L860 424 L859 425 L859 426 L853 438 L849 442 L844 443 L838 450 L821 455 L814 454 L812 453 L811 452 L814 452 L819 449 L819 447 L818 447 L819 446 L825 447 L827 446 L828 445 L824 446 L822 446 L821 445 L821 444 L825 443 L826 443 L825 440 L825 438 L818 441 L816 440 L815 438 L818 429 L818 416 L819 386 L821 373 L823 365 L829 365 L830 363 L835 359 L836 359 L837 359 L839 365 L838 357 L834 351 L830 347 L824 348 L822 347 L817 340 L815 339 L811 339 L809 341 L807 345 L804 345 L802 336 L800 334 L799 335 L799 333 L796 329 L798 327 L798 325 L795 328 L793 328 L793 326 L791 323 L790 323 L787 320 L782 321 L781 317 L779 315 L777 315 L777 315 L776 316 L771 315 L768 316 L758 313 L756 312 L754 308 L753 308 L752 305 L752 312 L749 316 L745 317 L741 315 L744 318 L744 319 L738 320 L735 319 L734 316 L732 316 L730 313 L729 312 L727 312 L727 311 L732 304 L740 303 L739 301 L739 298 L742 295 L742 292 L738 282 L739 280 L737 278 L734 278 L733 275 L731 274 L727 273 L728 273 L727 274 L725 274 L725 275 L723 278 L725 277 L725 278 L722 284 L721 288 L721 291 L720 292 L718 292 L717 293 L716 292 L712 289 L707 292 L708 293 L705 294 L701 293 L702 291 L699 289 L700 286 L699 279 L700 276 L700 274 L698 269 L696 269 L698 267 L697 266 L698 265 L702 262 L703 263 L703 262 L702 259 L700 260 L699 259 L699 256 L697 253 L698 254 L699 252 L701 252 L704 254 L702 249 L702 248 L701 249 L701 251 L700 251 L697 249 L696 244 L696 244 L696 243 L695 242 L694 246 L692 246 L691 247 L689 245 L691 244 L693 245 L691 243 L691 240 L692 239 L695 240 L693 239 L693 238 L692 238 L692 237 L690 239 L691 235 L694 233 L697 234 L698 233 L696 234 L694 232 L691 234 L689 230 L688 229 L685 226 L686 228 L689 232 L690 234 L689 237 L690 241 L689 244 L688 241 L686 237 L686 232 L685 230 L680 224 L677 221 L676 213 L675 211 L667 203 L667 202 L668 202 L665 199 L665 198 L662 199 L662 201 L663 210 L661 210 L661 207 L660 206 L656 203 L647 200 L646 200 L646 201 L643 200 L643 198 L641 193 L643 194 L645 193 L647 191 L648 189 L646 187 L646 188 L647 189 L645 191 L643 191 L643 186 L644 183 L642 186 L642 182 L640 183 L638 182 L637 183 L638 184 L638 185 L639 184 L640 186 L640 187 L641 188 L642 191 L641 192 L639 191 L635 186 L632 185 L628 179 L628 178 L630 179 L629 178 L631 176 L630 177 L628 176 L630 175 L626 175 L626 175 L628 173 L624 174 L626 177 L628 177 L627 180 L624 176 L620 176 L620 171 L619 172 L619 176 L616 173 L616 172 L617 173 L617 172 L615 171 L611 166 L607 164 L601 164 L600 167 L598 167 L594 167 L593 169 L586 169 L585 169 L584 171 L583 171 L576 168 L560 165 L553 168 L552 168 L552 171 L549 170 L550 169 L548 167 L544 167 L545 166 L544 166 L544 164 L543 163 L545 159 L546 160 L548 156 L548 154 L544 148 L546 146 L547 144 L548 144 L549 143 L549 141 L547 137 L545 136 L550 128 L549 125 L548 122 L549 119 L553 117 L553 113 L552 112 L554 107 L551 109 L546 109 L532 106 L526 103 L526 99 L524 106 L514 108 L508 108 L504 106 L501 109 L488 113 L486 117 L485 116 L486 117 L485 119 L482 121 L482 124 L490 132 L492 139 L488 145 L486 154 L484 158 L482 166 L483 175 L483 181 L485 188 L483 194 L485 197 L486 200 L484 203 L483 205 L482 208 L475 216 L473 219 L472 222 L473 225 L471 226 L472 232 L469 232 L467 234 L460 247 L459 253 L455 261 L455 265 L456 271 L455 272 L454 270 L452 271 L450 275 L451 282 L450 287 L451 294 L450 293 L446 293 L446 298 L441 305 L441 307 L438 308 L436 310 L435 316 L432 317 L432 318 L434 319 L432 323 L435 326 L435 329 L432 331 L431 329 L429 328 L426 330 L427 334 L431 338 L433 338 L432 340 L429 340 L426 347 L426 349 L428 353 L426 355 L427 365 L426 367 L426 371 L427 378 L430 383 L431 387 L434 392 L438 397 L436 398 L435 398 L432 401 L432 405 L433 409 L440 410 L442 411 L448 411 L450 409 L452 405 L458 405 L463 403 L468 402 L469 403 L471 402 L474 404 L475 407 L476 409 L477 409 L477 414 L479 419 L479 422 L480 425 L479 426 L480 434 L480 437 L482 453 L484 454 L487 457 L491 465 L495 468 L498 467 L496 460 L494 459 L495 458 L497 460 L500 463 L503 473 L506 487 L515 531 L519 541 L524 550 L524 551 L523 551 L517 547 L514 546 L515 544 L514 539 L513 538 L513 528 L512 525 L509 524 L507 525 L505 529 L503 528 L504 524 L507 522 L507 519 L506 512 L505 510 L502 509 L499 510 L495 514 L495 522 L497 529 L500 531 L504 539 L506 541 L510 541 L511 546 L514 548 L512 549 L514 553 L519 555 L523 555 L525 552 L525 549 L538 566 L542 568 L543 567 L550 573 L554 575 L567 574 L570 573 L571 572 L576 573 L578 573 L577 570 L572 569 L574 568 L576 568 L581 571 L588 573 L592 576 L607 600 L610 602 L617 606 L624 614 L634 620 L636 620 L636 619 L635 619 L635 618 L637 618 L646 622 L649 625 L659 643 L666 649 L669 654 L684 664 L690 666 L694 670 L701 677 L708 689 L710 694 L723 717 L723 722 L725 735 L724 739 L727 752 L726 755 L723 758 L724 761 L720 765 L720 769 L723 775 L722 777 L721 776 L720 778 L719 787 L717 787 L716 790 L719 799 L724 806 L723 808 L726 807 L722 814 L722 817 L724 829 L722 845 L723 848 L725 853 L728 857 L737 865 L740 866 L742 868 L744 867 L745 867 L745 869 L749 872 L750 876 L750 879 L750 880 L755 886 L758 888 L758 891 L760 894 L759 897 L760 899 L763 903 L765 907 L769 914 L770 921 L772 923 L773 923 L775 926 L776 929 L777 932 L777 934 L779 937 L779 938 L782 950 L781 952 L781 956 L778 956 L777 957 L772 957 L769 956 L769 952 L766 950 L766 948 L770 945 L772 944 L769 944 L765 946 L762 940 L759 936 L759 939 L762 943 L762 950 L760 952 L756 951 L750 948 L744 950 L741 950 L734 957 L731 956 L730 955 L730 958 L728 963 L724 958 L721 949 L718 944 L715 942 L707 939 L695 932 L688 930 L685 925 L681 923 L679 922 L674 923 L671 922 L669 917 L662 912 L661 910 L662 909 L660 907 L634 896 L627 888 L623 887 L622 885 L618 883 L615 884 L614 885 L613 879 L609 876 L607 871 L603 871 L600 869 L591 866 L589 864 L584 857 L581 855 L575 854 L574 853 L575 850 L573 850 L573 849 L577 845 L580 843 L579 837 L576 834 L574 824 L570 819 L568 818 L561 810 L557 800 L549 795 L546 790 L541 788 L542 785 L543 784 L539 785 L535 783 L534 781 L533 779 L534 775 L540 774 L542 772 L545 772 L544 771 L540 772 L538 772 L538 767 L538 766 L532 762 L530 762 L528 763 L527 759 L527 756 L526 756 L526 753 L524 751 L525 745 L527 744 L529 735 L528 735 L526 734 L526 731 L527 729 L528 730 L531 727 L526 727 L526 722 L526 721 L528 721 L527 720 L527 718 L525 718 L524 716 L525 714 L523 714 L523 713 L519 713 L520 712 L520 710 L518 709 L516 710 L515 709 L510 698 L513 695 L514 691 L514 687 L515 684 L511 677 L511 669 L509 663 L508 657 L511 658 L511 657 L510 656 L511 648 L509 634 L502 619 L498 616 L495 611 L493 602 L491 601 L492 597 L490 597 L489 599 L485 595 L484 593 L482 593 L483 591 L482 588 L480 588 L480 586 L475 581 L474 580 L472 581 L471 577 L465 575 L463 573 L463 569 L465 569 L464 567 L463 567 L462 563 L467 556 L467 555 L463 557 L462 556 L462 553 L458 555 L458 554 L456 554 L454 551 L453 548 L453 546 L456 543 L457 538 L453 544 L452 543 L452 539 L451 538 L451 538 L449 540 L449 545 L448 545 L442 542 L439 538 L439 535 L438 530 L436 529 L437 528 L436 521 L434 522 L433 521 L434 520 L433 519 L426 514 L424 511 L423 515 L422 516 L419 516 L418 514 L417 510 L416 508 L420 505 L420 500 L419 501 L417 502 L415 499 L413 498 L413 494 L410 491 L408 492 L408 493 L405 495 L404 494 L402 491 L399 493 L398 490 L398 480 L396 477 L395 479 L395 474 L394 473 L389 475 L390 471 L392 468 L388 467 L388 469 L384 470 L383 471 L381 472 L380 471 L380 472 L378 471 L378 472 L376 473 L375 473 L378 474 L378 480 L376 484 L374 483 L373 485 L371 482 L366 479 L365 475 L360 456 L361 454 L361 456 L363 459 L364 457 L361 455 L363 449 L361 444 L364 442 L364 435 L366 430 L369 427 L371 427 L371 425 L373 422 L370 424 L369 423 L369 421 L373 420 L369 413 L368 410 L370 411 L372 409 L371 408 L371 407 L376 395 L378 386 L380 388 L383 385 L383 384 L380 384 L380 383 L378 382 L382 379 L380 377 L382 376 L380 375 L381 374 L384 375 L385 373 L382 372 L381 373 L381 371 L385 369 L387 366 L384 368 L382 366 L384 363 L385 364 L386 363 L386 363 L387 361 L386 361 L387 359 L390 358 L390 357 L388 357 L388 357 L388 355 L392 349 L396 340 L398 332 L398 330 L397 331 L394 339 L391 344 L387 352 L384 356 L383 355 L382 353 L382 344 L380 341 L382 336 L383 329 L380 323 L380 316 L378 310 L378 304 L378 303 L381 303 L383 306 L383 304 L382 303 L384 302 L385 303 L388 298 L387 296 L390 295 L387 294 L386 293 L389 292 L391 290 L393 291 L395 290 L395 290 L396 286 L394 284 L396 281 L395 277 L393 277 L392 275 L396 273 L399 265 L396 260 L396 257 L395 258 L394 257 L396 253 L400 252 L398 247 L397 248 L396 247 L397 243 L397 239 L398 236 L403 236 L403 234 L408 235 L407 233 L402 232 L400 231 L403 226 L402 224 L403 225 L399 230 L398 230 L395 232 L395 235 L393 236 L388 233 L388 230 L390 228 L390 228 L388 228 L389 226 L391 226 L393 222 L395 222 L394 221 L390 222 L384 222 L385 221 L386 220 L391 220 L393 218 L394 217 L396 216 L396 213 L395 210 L395 209 L392 209 L390 207 L391 206 L390 204 L390 203 L393 202 L392 202 L395 199 L395 197 L394 197 L392 197 L387 200 L385 199 L383 197 L384 195 L386 193 L393 191 L395 189 L395 188 L391 186 L388 183 L389 179 L395 178 L393 176 L390 176 L389 174 L391 170 L393 169 L392 166 L394 162 L391 162 L391 161 L393 160 L390 160 L389 159 L389 159 L391 158 L391 157 L390 151 L387 148 L389 146 L387 141 L386 138 L387 137 L386 129 L381 125 L380 122 L379 123 L378 117 L379 116 L379 113 L378 116 L377 113 L375 110 L376 109 L376 108 L373 104 L371 103 L371 101 L369 100 L369 99 L366 93 L367 94 L367 93 L363 92 L364 82 L362 77 L362 71 L359 67 L359 70 L360 72 L360 74 L359 77 L360 81 L359 91 L360 95 L358 101 L359 104 L358 104 L357 103 L356 105 L356 102 L355 101 L357 100 L356 98 L357 97 L357 95 L358 94 L356 93 L353 93 L354 91 L353 90 L352 88 L352 86 L354 86 L353 80 L354 78 L352 77 L350 71 L354 64 L353 60 L354 60 L353 58 L352 59 L349 54 L346 48 L345 43 L346 38 L345 40 L344 39 L340 30 L341 28 L338 25 L338 23 L340 21 L342 20 L346 24 L348 25 L345 20 L346 20 L344 18 L344 17 L343 14 L342 15 L342 17 L341 18 L340 17 L339 14 L339 19 L338 20 L335 19 L333 11 L332 9 L333 3 L333 1 L331 -1 L331 -2 L333 -2 L332 -4 L333 -8 L908 -8ZM550 924 L550 920 L549 917 L546 910 L542 904 L540 901 L540 898 L541 895 L543 893 L546 891 L557 892 L559 897 L566 902 L576 910 L576 918 L580 928 L583 932 L593 936 L603 935 L606 935 L625 951 L631 955 L633 957 L634 960 L633 964 L637 967 L637 977 L638 980 L653 995 L660 999 L664 1000 L669 999 L684 1000 L689 1004 L696 1012 L698 1015 L699 1018 L697 1020 L689 1024 L698 1024 L704 1022 L708 1017 L712 1016 L717 1013 L726 1017 L730 1020 L733 1024 L424 1024 L424 1017 L423 1014 L422 1015 L422 1009 L420 1007 L419 1008 L418 997 L414 993 L414 987 L410 973 L404 960 L405 957 L401 953 L399 947 L397 946 L395 942 L397 942 L398 944 L403 938 L403 934 L401 933 L400 929 L396 926 L395 927 L395 928 L396 929 L396 931 L395 931 L394 930 L392 928 L383 916 L377 913 L371 912 L370 910 L369 909 L365 909 L363 906 L357 901 L345 895 L343 893 L337 895 L334 894 L334 894 L332 893 L329 893 L328 893 L322 884 L323 876 L322 866 L319 852 L306 848 L305 847 L299 838 L296 828 L294 826 L289 825 L278 806 L272 801 L269 795 L260 791 L246 791 L241 789 L237 786 L221 765 L219 764 L216 764 L212 759 L208 758 L194 742 L191 740 L189 736 L184 733 L181 730 L178 729 L178 727 L175 725 L171 719 L168 716 L163 701 L159 696 L158 695 L159 693 L159 691 L156 688 L155 684 L152 684 L155 680 L156 675 L155 673 L155 672 L152 666 L153 664 L158 664 L162 661 L168 658 L174 662 L175 661 L181 660 L191 664 L197 667 L200 668 L201 673 L203 675 L214 683 L228 686 L233 688 L236 689 L240 688 L244 689 L253 689 L265 684 L270 686 L275 685 L282 687 L287 690 L289 693 L293 694 L311 686 L313 687 L323 699 L334 708 L340 712 L344 719 L344 724 L347 729 L346 735 L349 735 L349 736 L350 735 L352 736 L356 736 L359 740 L360 739 L365 744 L366 748 L365 759 L359 762 L359 766 L364 761 L367 768 L371 767 L374 768 L379 770 L381 773 L385 773 L385 776 L387 777 L393 779 L395 782 L395 787 L401 792 L408 795 L412 796 L428 805 L441 814 L445 816 L449 819 L450 822 L454 826 L467 830 L469 834 L474 839 L475 842 L477 841 L480 844 L483 846 L484 857 L481 864 L484 866 L484 867 L485 869 L485 870 L487 869 L485 865 L483 863 L486 861 L488 862 L490 864 L490 868 L491 873 L493 875 L494 875 L493 870 L493 866 L496 863 L499 863 L500 865 L502 866 L503 871 L506 873 L511 887 L515 893 L523 901 L527 903 L531 903 L541 909 L545 914 L547 922 L550 924ZM908 375 L906 372 L906 371 L908 373 L908 375ZM749 989 L752 990 L754 991 L758 996 L757 997 L755 996 L754 994 L751 993 L749 989ZM758 982 L759 983 L759 985 L756 986 L752 983 L750 981 L752 980 L753 981 L753 979 L754 980 L758 982ZM385 934 L387 936 L388 938 L386 938 L381 938 L376 935 L376 933 L378 932 L382 936 L385 934ZM287 908 L285 909 L286 911 L284 911 L282 906 L285 904 L287 906 L287 908ZM146 654 L148 656 L147 657 L145 656 L143 658 L143 656 L142 656 L142 655 L142 654 L143 653 L140 653 L139 652 L141 651 L142 651 L146 654ZM470 618 L471 615 L473 614 L472 618 L473 620 L472 622 L471 622 L469 620 L469 619 L470 618ZM424 519 L424 522 L423 523 L420 521 L418 518 L420 518 L424 519ZM781 1002 L780 1002 L776 1000 L775 998 L775 997 L780 995 L782 1002 L781 1002ZM366 425 L368 426 L367 428 L365 433 L364 433 L364 431 L364 425 L364 424 L366 425ZM713 1007 L713 1011 L713 1012 L712 1013 L704 1015 L702 1013 L702 1011 L703 1005 L705 1002 L707 1002 L709 1002 L713 1007ZM726 997 L728 999 L726 1003 L724 1005 L722 1006 L721 1005 L716 998 L716 995 L717 990 L719 989 L720 990 L722 993 L724 994 L726 997ZM723 980 L723 982 L722 982 L719 981 L717 981 L716 980 L714 977 L715 974 L718 972 L719 972 L720 977 L722 978 L723 980ZM772 970 L772 973 L771 978 L769 977 L769 979 L768 981 L768 982 L765 982 L761 981 L758 981 L755 976 L755 975 L756 974 L757 976 L759 975 L758 972 L759 971 L761 972 L764 968 L767 972 L768 970 L767 969 L768 968 L770 968 L772 970ZM300 902 L301 908 L299 910 L299 908 L298 908 L296 905 L291 900 L284 897 L289 896 L290 898 L291 898 L294 896 L296 896 L297 897 L296 898 L299 900 L300 902ZM777 858 L777 861 L776 862 L772 863 L771 860 L770 858 L773 855 L772 852 L773 850 L774 851 L777 858ZM886 843 L890 844 L889 845 L888 844 L887 849 L886 850 L885 849 L881 851 L884 852 L884 853 L880 854 L879 851 L881 844 L878 842 L879 840 L878 839 L879 838 L880 840 L882 841 L882 844 L885 844 L886 843ZM506 673 L508 675 L505 686 L497 685 L497 685 L498 683 L498 676 L497 672 L498 672 L499 673 L501 672 L504 671 L506 673ZM162 642 L165 645 L165 648 L163 646 L163 649 L162 650 L159 649 L157 648 L156 644 L154 643 L153 641 L153 641 L156 641 L158 644 L159 644 L161 641 L162 642ZM478 609 L479 611 L476 613 L475 614 L474 613 L474 612 L473 612 L469 615 L466 616 L465 613 L465 610 L461 609 L460 604 L462 605 L465 604 L469 605 L472 603 L473 603 L473 602 L474 602 L475 604 L479 607 L478 609ZM462 598 L461 600 L459 596 L457 594 L461 584 L462 588 L462 591 L464 596 L464 597 L462 598ZM51 539 L50 541 L45 547 L43 547 L43 545 L41 543 L42 542 L43 539 L46 538 L48 534 L48 537 L51 539ZM30 498 L32 501 L31 504 L29 502 L25 503 L24 502 L24 500 L22 500 L21 498 L22 495 L26 494 L27 494 L28 497 L30 498ZM375 502 L376 501 L377 503 L374 504 L374 508 L370 507 L369 511 L366 510 L365 503 L366 502 L366 501 L364 500 L365 498 L365 497 L366 495 L365 490 L366 486 L366 481 L369 483 L370 487 L371 487 L374 489 L375 488 L377 489 L375 493 L375 495 L374 497 L374 499 L375 502ZM37 492 L34 495 L33 492 L34 491 L36 490 L34 489 L34 490 L32 490 L31 484 L34 479 L35 479 L36 479 L37 480 L35 485 L37 491 L37 492ZM489 384 L491 386 L489 392 L487 393 L486 395 L481 396 L480 390 L481 389 L480 385 L482 384 L488 385 L489 385 L489 384ZM367 351 L365 351 L367 353 L366 354 L365 354 L363 357 L359 359 L358 362 L355 366 L354 363 L355 357 L362 351 L364 350 L367 351ZM767 329 L767 337 L764 348 L765 350 L765 351 L765 354 L762 353 L759 338 L757 336 L752 332 L751 329 L757 329 L759 326 L760 324 L762 323 L767 329ZM365 296 L365 299 L367 300 L366 301 L367 303 L365 306 L364 306 L362 305 L362 303 L363 303 L364 302 L362 301 L363 296 L361 295 L360 293 L359 291 L358 292 L358 290 L356 290 L353 293 L352 292 L355 288 L356 286 L358 286 L360 287 L362 293 L365 296ZM365 228 L366 228 L367 229 L369 233 L367 235 L366 248 L364 251 L362 249 L362 251 L360 251 L361 252 L358 253 L358 252 L358 251 L359 251 L360 250 L359 247 L361 245 L360 243 L363 240 L362 237 L365 232 L365 228ZM383 228 L384 228 L385 231 L384 240 L383 243 L383 247 L381 244 L378 243 L377 244 L376 244 L376 242 L375 242 L375 240 L372 235 L373 235 L374 234 L373 233 L372 231 L375 230 L373 229 L372 229 L376 229 L378 229 L377 228 L380 228 L383 228ZM388 216 L392 217 L392 218 L386 218 L382 221 L379 221 L378 218 L379 214 L377 213 L376 206 L377 206 L382 213 L384 214 L385 214 L388 216ZM651 211 L654 215 L654 216 L653 216 L649 213 L649 216 L645 215 L645 216 L643 215 L643 210 L641 204 L642 204 L640 203 L645 203 L647 205 L651 211ZM353 200 L355 200 L356 204 L354 202 L351 202 L349 198 L349 195 L351 193 L354 193 L355 195 L353 200ZM351 188 L349 190 L347 192 L346 195 L345 192 L342 192 L344 189 L344 188 L342 190 L342 188 L343 187 L347 185 L347 188 L349 188 L349 186 L351 185 L351 183 L352 184 L353 186 L352 188 L351 188ZM378 172 L379 177 L378 181 L373 188 L370 191 L367 190 L369 182 L368 179 L369 177 L367 171 L367 168 L368 165 L369 166 L373 167 L374 168 L374 172 L376 176 L376 172 L377 171 L378 172ZM367 137 L368 136 L369 137 L367 141 L368 148 L367 149 L363 131 L363 128 L363 127 L364 127 L367 137ZM777 990 L779 990 L780 991 L779 992 L774 995 L772 991 L768 990 L768 985 L770 985 L773 989 L777 990ZM698 1007 L698 1010 L697 1011 L695 1005 L696 1005 L698 1007ZM727 1002 L728 1003 L728 1004 L727 1007 L725 1007 L725 1005 L727 1002ZM700 996 L700 998 L699 1001 L698 998 L700 996ZM801 995 L805 996 L804 998 L800 997 L797 999 L798 996 L801 995ZM739 992 L742 995 L742 997 L741 998 L738 994 L739 992ZM724 987 L726 989 L725 990 L722 990 L720 987 L724 987ZM747 318 L748 321 L747 323 L745 323 L744 321 L745 320 L745 319 L747 318ZM337 398 L335 397 L335 395 L337 395 L337 398ZM464 387 L464 388 L462 388 L464 387ZM350 369 L347 369 L347 368 L347 367 L349 367 L350 369ZM362 318 L362 320 L359 321 L359 318 L361 317 L362 317 L362 318ZM376 286 L376 285 L377 284 L377 287 L376 286ZM309 229 L308 228 L310 229 L310 229 L309 229ZM60 195 L59 195 L59 194 L60 194 L60 195ZM335 159 L335 157 L336 156 L337 159 L337 159 L335 159ZM89 111 L89 113 L88 113 L87 112 L89 111ZM728 994 L729 997 L726 994 L722 991 L721 990 L726 992 L728 994ZM817 979 L820 980 L820 981 L821 983 L819 984 L819 982 L816 980 L817 979ZM252 903 L254 905 L254 906 L251 907 L250 906 L250 904 L252 903ZM151 660 L152 662 L149 663 L146 661 L146 661 L148 658 L151 660ZM433 594 L433 595 L430 597 L427 597 L426 596 L428 596 L430 594 L433 594ZM443 546 L447 548 L444 548 L442 551 L442 547 L442 545 L443 546ZM39 495 L40 500 L35 496 L35 495 L36 495 L37 495 L38 493 L39 495ZM390 483 L389 489 L386 487 L386 487 L387 486 L387 485 L389 481 L390 483ZM42 457 L43 461 L42 464 L42 459 L41 456 L42 455 L42 457ZM375 371 L375 373 L374 375 L373 374 L375 371ZM359 346 L358 344 L359 342 L359 341 L363 343 L362 344 L362 345 L360 346 L359 352 L359 346ZM340 320 L339 321 L341 321 L342 323 L340 324 L341 326 L340 326 L339 326 L338 325 L340 324 L339 320 L340 320ZM380 292 L384 294 L384 296 L384 299 L383 299 L381 299 L383 297 L382 296 L381 297 L380 292ZM339 292 L339 290 L340 290 L343 290 L340 294 L338 295 L339 294 L339 292ZM365 267 L367 267 L367 268 L363 269 L363 267 L361 265 L366 265 L365 267ZM694 249 L696 251 L694 254 L694 254 L694 252 L692 248 L693 247 L694 248 L694 249ZM323 220 L324 222 L323 223 L323 225 L322 225 L321 223 L323 220ZM364 224 L364 221 L365 220 L366 222 L365 224 L364 224ZM365 218 L363 219 L362 217 L362 216 L364 216 L365 218ZM7 200 L7 203 L7 206 L7 207 L4 205 L4 203 L5 199 L6 199 L7 200ZM382 179 L382 184 L380 185 L379 184 L380 179 L381 177 L382 179ZM364 173 L366 176 L366 178 L364 179 L362 177 L362 174 L364 173ZM334 172 L336 171 L337 174 L336 176 L335 174 L334 174 L335 173 L334 172ZM3 95 L4 97 L-1 95 L2 94 L3 95ZM341 82 L342 82 L340 87 L341 82 L341 82ZM27 61 L27 66 L26 67 L27 61 L27 61ZM47 10 L49 7 L50 6 L49 9 L47 10ZM776 1002 L780 1004 L781 1005 L781 1007 L776 1002ZM337 395 L336 394 L336 393 L337 392 L339 392 L339 394 L337 394 L337 395ZM812 999 L814 999 L813 1001 L811 999 L812 999ZM807 992 L807 994 L805 995 L806 992 L806 991 L807 992ZM573 840 L572 841 L571 841 L570 840 L572 839 L573 840ZM715 314 L715 316 L715 316 L714 316 L712 313 L712 312 L714 311 L714 314 L715 314 L715 314ZM713 303 L714 304 L714 305 L713 306 L712 307 L710 305 L707 303 L706 301 L708 300 L709 300 L713 303ZM748 991 L750 994 L750 996 L750 998 L745 995 L743 992 L743 990 L744 989 L746 990 L748 991ZM418 520 L421 522 L421 527 L424 531 L422 532 L419 530 L418 525 L417 520 L418 520ZM384 488 L388 490 L389 500 L388 502 L387 502 L386 499 L385 496 L386 495 L386 494 L386 493 L385 492 L383 490 L383 486 L384 488ZM9 478 L12 479 L12 481 L7 479 L5 476 L4 471 L6 470 L7 471 L7 476 L9 478ZM367 415 L368 417 L369 420 L367 421 L368 421 L364 422 L363 421 L363 414 L365 414 L367 415ZM487 369 L489 370 L491 378 L484 374 L484 373 L483 371 L484 369 L487 369ZM383 286 L382 287 L381 288 L380 287 L379 286 L380 284 L382 282 L382 278 L384 283 L384 288 L383 288 L383 286ZM695 259 L696 261 L695 265 L695 266 L693 266 L692 265 L691 256 L692 254 L692 255 L693 254 L694 255 L695 259ZM662 234 L664 234 L665 236 L665 238 L664 241 L665 241 L664 243 L664 244 L663 243 L660 242 L661 240 L660 236 L661 231 L662 231 L662 232 L662 234ZM350 235 L352 240 L347 235 L348 234 L348 231 L347 230 L346 225 L347 223 L347 227 L350 229 L350 233 L352 232 L351 234 L350 235ZM3 216 L5 221 L3 221 L2 218 L-4 214 L-1 211 L1 211 L2 211 L1 213 L3 216ZM577 839 L577 842 L572 845 L575 838 L576 838 L577 839ZM701 986 L704 989 L704 991 L701 993 L698 992 L689 987 L686 983 L680 982 L678 979 L672 979 L668 981 L666 981 L666 980 L671 975 L673 971 L675 970 L679 970 L684 972 L695 978 L701 986ZM807 975 L808 979 L806 982 L807 986 L804 988 L803 993 L801 993 L795 991 L795 989 L793 987 L795 987 L795 986 L791 984 L791 983 L794 982 L794 980 L795 979 L793 977 L792 977 L788 979 L785 980 L784 981 L780 981 L779 980 L778 975 L783 972 L785 969 L788 969 L789 967 L794 969 L797 969 L801 967 L801 966 L803 968 L802 971 L803 973 L807 975ZM656 965 L656 968 L654 976 L655 983 L651 986 L649 986 L642 979 L639 974 L640 967 L637 961 L638 958 L638 954 L639 953 L643 953 L656 965ZM759 954 L762 955 L760 958 L758 959 L754 960 L750 963 L747 963 L745 961 L738 960 L737 959 L740 953 L741 952 L750 950 L759 954ZM657 956 L658 962 L656 963 L653 961 L646 953 L643 951 L632 950 L630 948 L625 943 L623 941 L624 939 L628 938 L634 941 L646 943 L655 946 L657 947 L657 956ZM241 883 L241 887 L237 888 L233 887 L231 887 L229 886 L230 885 L229 884 L227 882 L224 881 L212 872 L205 869 L205 870 L203 871 L200 869 L198 867 L193 867 L193 864 L189 860 L190 858 L187 858 L187 854 L192 853 L192 851 L193 847 L195 848 L200 848 L202 849 L201 852 L200 850 L200 851 L200 853 L202 852 L203 854 L205 855 L206 857 L208 858 L214 860 L216 861 L217 862 L215 865 L215 867 L217 866 L219 867 L218 865 L219 865 L225 870 L230 873 L233 876 L234 879 L235 879 L235 876 L236 877 L237 877 L241 883ZM64 563 L64 568 L62 573 L62 576 L63 578 L59 578 L58 582 L56 582 L56 578 L54 576 L55 575 L54 574 L54 572 L53 572 L53 570 L52 570 L49 564 L46 563 L45 564 L45 556 L47 552 L50 552 L56 548 L60 551 L61 558 L64 563ZM4 123 L5 124 L4 127 L3 138 L1 140 L-1 140 L-2 141 L-2 137 L-3 137 L-3 138 L-4 138 L-5 139 L-3 145 L-4 146 L-5 144 L-7 144 L-8 147 L-8 150 L-7 150 L-6 148 L-2 152 L-2 157 L-3 158 L-1 162 L-2 169 L-1 173 L-1 177 L-3 180 L-2 180 L-4 183 L-4 184 L-7 181 L-7 183 L-8 183 L-8 187 L-6 190 L-8 191 L-7 195 L-8 196 L-7 199 L-8 199 L-8 115 L-7 110 L-4 106 L-3 104 L-1 103 L-0 104 L1 104 L1 102 L1 102 L3 102 L5 105 L4 109 L4 114 L6 113 L5 114 L4 115 L3 117 L0 119 L-0 117 L-2 118 L-1 120 L2 120 L4 123ZM341 982 L342 982 L342 984 L339 988 L340 994 L337 1007 L334 1012 L331 1010 L330 1011 L327 1010 L326 1011 L324 1009 L325 1007 L322 1004 L323 1001 L319 994 L317 991 L311 987 L311 986 L310 985 L304 985 L304 980 L303 977 L298 969 L295 965 L294 963 L290 961 L289 958 L286 955 L283 953 L282 954 L281 953 L284 951 L287 951 L288 953 L293 952 L299 948 L300 947 L300 944 L301 944 L304 946 L306 945 L307 948 L311 948 L314 954 L319 959 L320 962 L325 968 L332 971 L335 976 L339 977 L341 982ZM800 1021 L800 1022 L798 1022 L798 1024 L797 1021 L800 1021ZM732 1020 L733 1022 L731 1022 L730 1020 L732 1020ZM782 1017 L781 1014 L782 1017ZM734 1014 L735 1015 L734 1017 L732 1012 L732 1012 L734 1014ZM778 1013 L777 1013 L777 1012 L778 1013ZM775 1009 L775 1008 L777 1011 L776 1011 L775 1013 L774 1010 L775 1009ZM740 1007 L741 1007 L741 1009 L739 1008 L739 1006 L740 1007ZM768 1006 L769 1007 L768 1009 L767 1006 L768 1006ZM784 1005 L783 1004 L783 1003 L784 1005ZM782 1004 L781 1004 L781 1003 L782 1003 L782 1004ZM743 1000 L744 999 L743 1001 L743 1003 L742 1003 L740 1001 L740 1000 L743 1000ZM739 1001 L738 999 L740 1000 L739 1001ZM806 999 L807 998 L807 999 L804 1002 L803 1002 L804 999 L806 999ZM811 999 L810 999 L809 998 L810 998 L811 999ZM783 999 L783 998 L784 998 L786 999 L783 999ZM811 998 L809 997 L809 996 L813 996 L814 998 L811 998ZM730 997 L730 998 L729 997 L729 996 L730 996 L730 997ZM300 993 L300 995 L299 994 L299 993 L300 993ZM794 989 L795 990 L794 991 L791 990 L794 989ZM810 992 L808 992 L808 991 L808 990 L809 989 L810 989 L810 992ZM806 989 L807 989 L805 991 L805 989 L805 988 L806 989ZM765 987 L765 988 L764 989 L765 987ZM772 984 L772 983 L773 983 L773 984 L775 985 L772 986 L772 984ZM766 984 L767 985 L766 987 L765 986 L765 984 L765 983 L766 984ZM779 982 L780 982 L780 983 L778 983 L779 982ZM773 982 L772 982 L772 980 L774 979 L775 980 L773 982ZM748 983 L748 984 L746 983 L746 980 L745 980 L746 978 L747 978 L748 983ZM773 979 L773 977 L774 977 L775 978 L773 980 L773 979ZM748 974 L749 975 L747 975 L748 974 L748 974ZM713 971 L713 973 L713 973 L713 971ZM720 970 L721 972 L719 972 L718 970 L719 970 L720 970ZM721 958 L722 958 L723 959 L722 960 L721 958ZM252 899 L253 900 L252 901 L250 900 L250 899 L252 899ZM531 897 L532 900 L528 898 L528 896 L529 896 L531 897ZM557 890 L555 891 L552 891 L552 890 L557 890ZM770 890 L771 891 L771 892 L768 890 L768 890 L770 890ZM797 881 L797 879 L798 879 L799 880 L799 882 L798 882 L797 881ZM784 872 L783 870 L785 871 L786 872 L785 873 L784 872ZM756 863 L756 864 L755 865 L755 864 L755 863 L756 863ZM570 846 L572 845 L572 849 L571 849 L570 849 L570 846ZM899 839 L898 841 L898 840 L898 841 L898 837 L899 836 L899 839ZM876 834 L877 835 L876 836 L875 835 L875 834 L876 834ZM525 759 L525 760 L522 758 L522 755 L524 756 L525 759ZM695 649 L695 649 L695 651 L692 651 L692 647 L693 647 L695 649ZM677 641 L676 642 L675 641 L675 642 L675 640 L676 640 L677 641ZM437 595 L438 596 L438 598 L436 599 L434 595 L435 594 L437 595ZM475 583 L475 585 L474 585 L474 585 L475 583ZM457 557 L458 559 L455 558 L454 556 L457 557ZM372 522 L372 522 L371 524 L371 522 L372 522ZM415 506 L414 510 L411 506 L412 505 L415 506ZM17 477 L17 480 L15 478 L16 477 L17 477ZM820 465 L819 466 L819 465 L820 463 L820 465ZM4 464 L4 463 L5 463 L5 465 L4 464ZM322 449 L322 452 L320 449 L322 449ZM366 413 L365 413 L365 411 L368 407 L366 413ZM723 404 L727 404 L724 405 L723 404ZM344 380 L344 383 L343 381 L343 380 L344 380ZM787 378 L787 379 L786 378 L787 376 L787 378ZM805 369 L804 369 L806 367 L807 368 L807 369 L805 369ZM379 365 L379 367 L378 370 L376 369 L376 367 L377 364 L379 365ZM474 350 L473 351 L472 350 L473 346 L474 346 L475 348 L474 350ZM345 343 L345 344 L345 345 L344 345 L343 346 L343 344 L345 342 L345 343ZM348 315 L348 315 L346 316 L346 317 L342 315 L344 314 L346 315 L347 313 L348 313 L348 315ZM368 282 L369 283 L368 284 L367 283 L368 282 L368 282ZM384 264 L384 266 L383 261 L384 264ZM356 255 L356 258 L355 258 L355 256 L353 255 L354 255 L356 255 L356 254 L356 255ZM314 228 L313 229 L311 229 L310 227 L313 227 L314 228ZM657 226 L659 226 L658 227 L657 227 L657 229 L656 227 L654 227 L656 225 L657 226ZM328 204 L327 206 L326 204 L328 204ZM3 206 L4 208 L4 210 L1 208 L1 205 L2 203 L2 202 L2 204 L3 206ZM374 201 L374 202 L374 204 L373 204 L373 202 L374 201ZM378 186 L379 186 L380 187 L380 189 L378 190 L376 189 L378 186ZM540 163 L541 164 L539 166 L538 163 L540 163ZM371 161 L371 164 L370 162 L369 159 L371 161ZM1 143 L-1 148 L-1 147 L-2 147 L-1 146 L-3 144 L-2 144 L-1 145 L-0 143 L1 143ZM383 128 L382 130 L381 131 L380 127 L380 127 L382 126 L383 128ZM16 73 L16 71 L17 73 L16 74 L16 73ZM333 58 L334 58 L333 60 L332 62 L331 60 L332 59 L333 58ZM331 42 L331 44 L330 42 L331 42 L331 42ZM696 995 L696 997 L695 1001 L693 1002 L687 997 L685 996 L682 995 L676 996 L670 995 L662 997 L659 996 L651 990 L652 987 L658 985 L655 974 L657 972 L660 972 L662 973 L666 977 L665 981 L669 982 L673 980 L676 981 L686 986 L694 992 L696 995ZM604 908 L606 911 L608 916 L605 920 L604 926 L603 927 L599 931 L597 932 L594 932 L588 930 L586 928 L583 921 L581 918 L582 911 L583 909 L584 908 L587 907 L592 908 L596 904 L599 903 L601 904 L604 908Z"/></svg>